<svg xmlns="http://www.w3.org/2000/svg" xmlns:xlink="http://www.w3.org/1999/xlink" width="267.203" height="72.919" viewBox="0 0 267.203 72.919">
  <defs>
    <clipPath id="clip-path">
      <rect id="Rectangle_14" data-name="Rectangle 14" width="267.203" height="72.919" fill="none"/>
    </clipPath>
  </defs>
  <g id="Groupe_5" data-name="Groupe 5" transform="translate(0 0)">
    <g id="Groupe_4" data-name="Groupe 4" transform="translate(0 0)" clip-path="url(#clip-path)">
      <path id="Tracé_10" data-name="Tracé 10" d="M16.726,30.758H5.528a24.724,24.724,0,0,1,24.695-24.7v11.2a13.511,13.511,0,0,0-13.5,13.5" transform="translate(8.627 9.46)" fill="#636892"/>
      <rect id="Rectangle_11" data-name="Rectangle 11" width="16.893" height="11.198" transform="translate(21.363 0.003)" fill="#636892"/>
      <path id="Tracé_11" data-name="Tracé 11" d="M53.034,19.659l-8.609,11.2H35.957a28.91,28.91,0,0,1-1.736,2.394,2.657,2.657,0,0,1-.182.21c-.266.323-.545.63-.84.937a23.74,23.74,0,0,1-4.34,3.682c-.279.2-.561.379-.853.545a.415.415,0,0,1-.128.072c-.292.195-.6.364-.909.53a20.05,20.05,0,0,1-2.241,1.078c-.238.1-.474.2-.712.294-.294.113-.589.225-.9.323l-.253.085a8.647,8.647,0,0,1-.881.266c-.21.069-.433.125-.658.182-.392.11-.784.195-1.191.279-.182.041-.364.069-.545.1-.364.072-.727.141-1.106.182a.98.98,0,0,1-.223.028c-.492.072-.981.113-1.47.141-.533.041-1.078.056-1.623.056v-11.2a13.254,13.254,0,0,0,1.846-.125c.169-.028.338-.056.5-.082a3.045,3.045,0,0,0,.364-.072c.169-.028.323-.056.476-.1s.266-.072.407-.113c.195-.041.376-.113.574-.166.223-.072.433-.156.643-.225.335-.125.673-.266.994-.42.21-.113.42-.21.617-.323s.392-.21.574-.32c.379-.225.727-.476,1.078-.73.335-.266.671-.53.981-.825.166-.141.335-.294.489-.448s.266-.279.392-.42l.1-.1c.128-.141.254-.294.379-.448a1.667,1.667,0,0,0,.125-.156,7.726,7.726,0,0,0,.517-.684,9.15,9.15,0,0,0,.576-.9,11.671,11.671,0,0,0,.6-1.134,8.84,8.84,0,0,0,.376-.881,1.352,1.352,0,0,0,.1-.282,11.3,11.3,0,0,0,.589-2.184v-.026l.041-.225Z" transform="translate(23.675 30.682)" fill="#636892"/>
      <path id="Tracé_12" data-name="Tracé 12" d="M16.586,18.97,5.626,22.107A24.721,24.721,0,0,0,30.065,43.314v-11.2A13.5,13.5,0,0,1,16.586,18.97" transform="translate(8.78 29.607)" fill="#151d48"/>
      <path id="Tracé_13" data-name="Tracé 13" d="M63.553,30.756V37.77H8.606L4.566,32.505,0,26.57H51.679a13.5,13.5,0,0,0-12.834-9.308V6.064A24.727,24.727,0,0,1,63.553,30.756" transform="translate(0 9.465)" fill="#8b93b5"/>
      <rect id="Rectangle_12" data-name="Rectangle 12" width="14.334" height="11.198" transform="translate(38.013 0.003)" fill="#151d48"/>
      <path id="Tracé_14" data-name="Tracé 14" d="M94.041,35.064A11.26,11.26,0,0,1,82.792,23.818V11.4h4.087V23.818a7.161,7.161,0,0,0,14.322,0V11.4h4.087V23.818A11.258,11.258,0,0,1,94.041,35.064" transform="translate(129.209 17.791)" fill="#8b93b5"/>
      <path id="Tracé_15" data-name="Tracé 15" d="M78.755,36.7A13.04,13.04,0,0,1,68.2,31.283a12.865,12.865,0,0,1-1.411-2.5,15.084,15.084,0,0,1-1.035-5.093l.01-.394a13.006,13.006,0,0,1,26.011.061V25.4H75.621V21.314h11.83a8.921,8.921,0,0,0-17.6,2.043l-.008.394a11.175,11.175,0,0,0,.725,3.47,8.7,8.7,0,0,0,.95,1.672,8.92,8.92,0,0,0,14.611-.174l3.37,2.307A13.011,13.011,0,0,1,78.755,36.7" transform="translate(102.615 16.157)" fill="#636892"/>
      <rect id="Rectangle_13" data-name="Rectangle 13" width="4.087" height="25.724" transform="translate(142.449 26.572)" fill="#636892"/>
      <path id="Tracé_16" data-name="Tracé 16" d="M59.707,19.764H55.62a9.411,9.411,0,0,1,9.4-9.4v4.087a5.32,5.32,0,0,0-5.313,5.313" transform="translate(86.803 16.176)" fill="#636892"/>
      <path id="Tracé_17" data-name="Tracé 17" d="M106.386,36.412H99.173V32.645h7.213a3.605,3.605,0,0,0,0-7.211l-.712-.008a7.371,7.371,0,0,1,.018-14.742v3.767a3.605,3.605,0,1,0,0,7.211l.714.008a7.371,7.371,0,0,1-.02,14.742" transform="translate(153.447 16.677)" fill="#8b93b5"/>
      <path id="Tracé_18" data-name="Tracé 18" d="M51.639,36.7a13.04,13.04,0,0,1-10.558-5.413,12.863,12.863,0,0,1-1.411-2.5,15.083,15.083,0,0,1-1.035-5.093l.01-.394a13.006,13.006,0,0,1,26.011.061V25.4H48.5V21.314h11.83a8.921,8.921,0,0,0-17.6,2.043l-.008.394a11.175,11.175,0,0,0,.725,3.47,8.7,8.7,0,0,0,.95,1.672,8.92,8.92,0,0,0,14.611-.174l3.37,2.307A13.011,13.011,0,0,1,51.639,36.7" transform="translate(60.297 16.157)" fill="#151d48"/>
    </g>
  </g>
</svg>
