<svg id="Composant_1_1" data-name="Composant 1 – 1" xmlns="http://www.w3.org/2000/svg" width="65.4" height="62.169" viewBox="0 0 65.4 62.169">
  <path id="Tracé_1" data-name="Tracé 1" d="M16.212,28.364H6.665A21.078,21.078,0,0,1,27.72,7.309v9.547A11.52,11.52,0,0,0,16.212,28.364" transform="translate(5.401 5.924)" fill="#ffca02"/>
  <rect id="Rectangle_1" data-name="Rectangle 1" width="14.403" height="9.547" transform="translate(18.211)" fill="#ffca02"/>
  <path id="Tracé_2" data-name="Tracé 2" d="M50.575,23.7l-7.34,9.547H36.014a24.588,24.588,0,0,1-1.479,2.042,2.23,2.23,0,0,1-.156.177c-.226.275-.465.538-.715.8a20.38,20.38,0,0,1-3.7,3.14c-.237.167-.476.322-.728.465a.321.321,0,0,1-.107.06c-.25.167-.514.31-.775.453a18.008,18.008,0,0,1-1.91.92l-.608.25c-.252.1-.5.19-.764.275l-.215.071a7,7,0,0,1-.751.226c-.179.06-.369.109-.561.156-.333.1-.668.167-1.014.239-.156.036-.31.06-.465.083-.311.06-.621.119-.943.156a1.01,1.01,0,0,1-.19.024c-.418.06-.836.1-1.255.119-.453.036-.918.047-1.383.047V33.407a11.546,11.546,0,0,0,1.575-.107c.143-.025.286-.049.429-.072a2.568,2.568,0,0,0,.311-.06,3.916,3.916,0,0,0,.406-.083c.119-.036.226-.06.346-.1.167-.036.322-.1.489-.143.192-.06.371-.13.549-.19.288-.109.574-.228.847-.358.179-.1.358-.179.525-.275s.335-.179.491-.273c.322-.192.619-.406.918-.621s.574-.453.836-.7c.143-.119.286-.25.416-.382s.228-.239.335-.358c.024-.024.06-.058.083-.083.107-.119.215-.25.322-.382a1,1,0,0,0,.107-.13,6.693,6.693,0,0,0,.442-.585,7.55,7.55,0,0,0,.489-.764,9.119,9.119,0,0,0,.514-.967,7.213,7.213,0,0,0,.322-.751,1.376,1.376,0,0,0,.083-.239,9.863,9.863,0,0,0,.5-1.861V23.9c.011-.06.024-.132.036-.192Z" transform="translate(14.825 19.213)" fill="#ffca02"/>
  <path id="Tracé_3" data-name="Tracé 3" d="M16.127,22.874,6.783,25.548a21.078,21.078,0,0,0,20.838,18.08V34.081A11.511,11.511,0,0,1,16.127,22.874" transform="translate(5.496 18.541)" fill="#f7b03b"/>
  <path id="Tracé_4" data-name="Tracé 4" d="M54.183,28.364v5.979H7.339L3.89,29.856,0,24.795h44.06a11.515,11.515,0,0,0-10.943-7.936V7.312A21.081,21.081,0,0,1,54.183,28.364" transform="translate(-0.001 5.926)" fill="#eedd75"/>
  <rect id="Rectangle_2" data-name="Rectangle 2" width="12.221" height="9.547" transform="translate(32.408)" fill="#eedd75"/>
</svg>
